<?xml version="1.0" standalone="no"?>
<!DOCTYPE svg PUBLIC "-//W3C//DTD SVG 20010904//EN"
 "http://www.w3.org/TR/2001/REC-SVG-20010904/DTD/svg10.dtd">
<svg version="1.0" xmlns="http://www.w3.org/2000/svg"
 width="640.000000pt" height="640.000000pt" viewBox="0 0 640.000000 640.000000"
 preserveAspectRatio="xMidYMid meet">
<metadata>
Created by potrace 1.16, written by Peter Selinger 2001-2019
</metadata>
<g transform="translate(0.000000,640.000000) scale(0.100000,-0.100000)"
fill="#000000" stroke="none">
<path d="M3200 5995 c-129 -16 -351 -58 -485 -92 -123 -30 -238 -88 -387 -196
-62 -44 -147 -104 -188 -133 -41 -29 -91 -74 -111 -101 -84 -110 -162 -272
-182 -373 -3 -14 -19 -61 -37 -105 -74 -190 -110 -313 -124 -437 -22 -179 -34
-339 -51 -638 -9 -146 -20 -295 -25 -333 -15 -110 -52 -808 -52 -995 l-1 -173
-33 -14 c-35 -14 -87 -55 -312 -238 -112 -93 -132 -113 -132 -137 0 -23 22
-49 127 -147 71 -65 152 -141 182 -170 l54 -53 -18 -27 c-10 -16 -53 -71 -96
-124 -97 -122 -102 -131 -88 -162 13 -30 48 -47 93 -47 42 0 56 12 106 90 63
99 142 200 152 194 5 -4 7 -75 3 -167 -4 -89 -2 -288 4 -442 8 -244 14 -301
40 -440 32 -170 67 -288 99 -333 10 -15 40 -66 66 -115 l48 -87 104 0 104 0
-55 67 c-93 114 -177 300 -204 458 -9 55 -18 147 -41 425 -5 58 -9 220 -10
360 0 140 -4 296 -9 345 -13 124 -17 591 -6 693 7 77 9 82 29 76 88 -26 124
-36 223 -64 124 -34 345 -69 438 -70 90 0 90 0 90 -141 0 -117 1 -122 26 -150
48 -53 69 -44 215 91 135 125 158 137 197 103 10 -10 44 -27 75 -39 59 -23
161 -63 271 -108 36 -14 74 -35 86 -46 12 -11 35 -20 53 -20 37 0 38 2 47 143
4 55 9 105 12 113 7 20 20 22 273 39 232 16 446 43 553 70 34 8 130 25 213 38
l152 23 6 -225 c3 -125 10 -255 15 -291 5 -36 15 -225 20 -420 10 -302 9 -380
-4 -520 -18 -190 -39 -333 -59 -405 -8 -27 -26 -90 -40 -140 -35 -127 -79
-227 -134 -309 -26 -39 -51 -77 -56 -84 -5 -9 14 -12 87 -12 l95 0 55 113 c78
159 81 167 121 349 20 90 43 193 51 229 24 102 34 253 35 497 0 125 4 222 9
222 5 0 64 -25 131 -56 104 -48 125 -55 146 -46 30 14 41 55 22 84 -8 12 -61
53 -118 93 -57 39 -105 75 -107 81 -4 12 80 128 137 189 73 79 180 284 180
345 0 87 -8 93 -265 205 -71 31 -139 65 -150 76 -23 22 -24 82 -11 484 6 161
4 296 -8 505 -9 157 -21 384 -26 505 -5 121 -19 285 -30 365 -10 80 -29 219
-40 310 -29 233 -52 323 -143 560 -66 170 -97 224 -198 345 -219 261 -406 391
-727 504 -143 51 -144 51 -260 50 -64 -1 -164 -7 -222 -14z m323 -155 c112
-13 194 -42 332 -118 234 -129 347 -219 458 -364 102 -134 213 -385 249 -563
57 -286 102 -661 117 -970 6 -121 18 -305 27 -410 11 -145 14 -260 9 -485 -3
-162 -8 -307 -11 -322 -7 -33 -10 -34 -184 -69 -80 -16 -176 -35 -213 -44
-131 -29 -800 -101 -831 -89 -8 3 -26 40 -41 82 -31 96 -59 142 -84 142 -11 0
-110 -45 -221 -100 -110 -55 -208 -100 -216 -100 -9 0 -37 17 -63 39 -57 48
-167 132 -203 155 -20 13 -31 15 -46 7 -29 -15 -62 -73 -62 -108 0 -17 -10
-43 -22 -58 -20 -26 -24 -27 -87 -22 -102 9 -376 54 -471 77 -149 37 -214 61
-239 88 -24 26 -24 28 -17 182 3 85 13 232 21 325 8 94 24 312 35 485 40 631
66 979 79 1029 6 20 17 68 26 106 25 111 63 202 133 318 58 98 64 112 58 148
-6 36 -2 45 64 133 53 72 84 103 127 130 32 19 82 55 112 81 29 25 67 53 83
61 16 8 62 37 103 64 86 55 183 90 340 120 61 12 131 26 158 31 133 27 339 35
480 19z m-1956 -3608 c16 -272 23 -464 18 -472 -6 -9 -332 286 -333 300 -2 21
270 210 302 210 6 0 12 -17 13 -38z m3396 -42 c83 -31 151 -81 155 -113 5 -43
-70 -172 -165 -287 l-88 -105 -2 35 c-10 137 -19 404 -15 449 4 51 5 53 31 48
14 -3 52 -15 84 -27z"/>
<path d="M2430 4548 c-67 -19 -130 -85 -130 -135 0 -10 -20 -61 -45 -113 -40
-85 -45 -103 -45 -166 0 -156 85 -315 195 -365 98 -45 304 -2 421 88 59 44
131 202 135 294 3 81 -51 232 -107 298 -69 82 -296 136 -424 99z m178 -103
c29 -9 52 -20 52 -24 0 -5 -20 -19 -45 -31 -84 -41 -134 -130 -121 -214 11
-68 46 -134 82 -157 27 -17 50 -21 109 -20 41 0 75 -3 75 -7 -1 -10 -43 -40
-99 -70 -35 -19 -66 -26 -126 -30 -76 -4 -83 -3 -112 22 -35 29 -68 100 -78
167 -9 59 13 146 59 236 38 76 79 120 122 133 16 4 29 9 30 9 0 1 24 -6 52
-14z"/>
<path d="M3515 4491 c-131 -21 -230 -127 -284 -305 -30 -98 -28 -167 8 -243
26 -53 39 -68 103 -111 102 -68 161 -87 278 -87 111 0 192 22 254 70 34 25 47
48 79 125 35 88 37 101 33 175 -6 124 -27 178 -99 252 -103 108 -223 147 -372
124z m132 -128 c3 -7 -5 -20 -17 -30 -12 -10 -34 -38 -48 -63 -36 -61 -38
-164 -4 -231 39 -77 121 -116 180 -85 72 37 71 2 -1 -38 -41 -23 -68 -30 -127
-34 -92 -5 -146 8 -202 51 -79 60 -96 137 -60 269 21 75 46 111 105 151 36 24
49 27 106 25 39 -2 66 -8 68 -15z"/>
<path d="M2778 3288 c-23 -8 -28 -16 -28 -44 0 -28 13 -48 70 -114 105 -118
130 -135 204 -134 50 0 74 7 132 37 74 37 140 101 151 145 7 29 -25 76 -55 80
-27 4 -85 -27 -146 -77 -38 -32 -56 -41 -86 -41 -35 0 -44 7 -110 80 -73 81
-83 86 -132 68z"/>
<path d="M4080 2205 c-25 -31 -8 -49 58 -61 35 -6 67 -15 72 -20 4 -5 11 -26
14 -46 l7 -38 -60 0 c-41 0 -65 -5 -75 -16 -14 -14 -14 -19 5 -55 23 -46 41
-56 72 -41 12 6 78 13 147 17 107 5 128 9 145 26 l20 20 -24 20 c-13 10 -35
19 -50 20 -14 0 -42 5 -61 12 -28 10 -36 19 -41 47 -10 47 5 63 51 57 41 -5
70 7 70 28 0 19 -20 23 -174 35 -164 13 -161 13 -176 -5z"/>
<path d="M4067 1883 c-16 -15 -5 -90 23 -153 17 -38 30 -84 30 -102 0 -26 7
-39 30 -56 16 -12 37 -36 45 -53 22 -41 6 -59 -52 -59 -50 0 -66 -20 -38 -50
18 -20 93 -40 149 -40 38 0 202 77 230 109 20 21 20 22 0 41 -11 11 -82 42
-159 68 l-140 49 -6 69 c-3 38 -2 73 2 77 4 5 19 -7 33 -26 26 -34 81 -64 90
-49 2 4 7 22 11 40 8 41 22 37 51 -13 25 -46 56 -64 79 -45 8 7 15 21 15 31 0
21 -37 120 -50 133 -5 5 -65 15 -132 22 -139 15 -202 17 -211 7z"/>
<path d="M4128 1339 c-34 -19 -13 -191 28 -237 l24 -27 20 24 c16 18 20 38 20
88 0 62 1 65 23 60 12 -3 55 -11 95 -18 67 -11 77 -11 108 6 19 10 34 22 34
26 0 18 -64 59 -93 59 -18 0 -70 7 -117 15 -99 17 -119 18 -142 4z"/>
<path d="M4371 1049 c-5 -13 -12 -31 -14 -40 -6 -19 -78 -31 -139 -23 -79 11
-131 -61 -68 -93 14 -7 62 -13 113 -13 92 0 126 -10 161 -49 22 -25 49 -27 66
-6 10 12 9 34 -5 109 -17 99 -29 119 -77 131 -23 6 -29 3 -37 -16z"/>
<path d="M4118 734 c-14 -14 -8 -51 11 -75 10 -12 38 -28 62 -33 37 -9 44 -15
47 -38 3 -25 0 -27 -45 -33 -50 -7 -123 -33 -123 -45 0 -3 12 -17 26 -31 24
-22 32 -24 147 -24 130 0 181 11 213 46 18 20 18 21 -5 40 -13 10 -36 19 -52
19 -22 0 -32 6 -38 23 -11 27 3 47 33 47 35 0 60 23 51 49 -12 40 -43 49 -185
56 -74 4 -138 4 -142 -1z"/>
</g>
</svg>
